<svg width="18" height="18" viewBox="0 0 18 18" fill="none" xmlns="http://www.w3.org/2000/svg">
<g clip-path="url(#clip0_33_206)">
<path fill-rule="evenodd" clip-rule="evenodd" d="M17.4726 6.83849H17.2648L15.138 1.3448C15.058 1.13792 14.8641 1.00227 14.6485 1.00227C14.5799 1.00227 14.5137 1.01604 14.4526 1.04129L10.8067 2.54778C10.5018 2.10819 10.0507 1.78396 9.52731 1.65172C9.07731 1.56295 8.6367 1.61473 8.47266 1.65172C7.50133 1.89705 6.77813 2.80347 6.77813 3.88172C6.77813 3.99112 6.78611 4.09867 6.80052 4.2041L3.15568 5.71017L3.15554 5.71031C3.02426 5.7648 2.91659 5.87261 2.86193 6.01366L0.735121 11.5074H0.527344C0.236068 11.5074 0 11.7514 0 12.0522C0 13.64 1.2501 14.9317 2.78668 14.9317H3.91648C5.45305 14.9317 6.70317 13.64 6.70317 12.0522C6.70317 11.7514 6.4671 11.5074 6.17583 11.5074H5.96791L4.03706 6.51967L7.19329 5.2155C7.4983 5.6551 7.94929 5.97934 8.47266 6.11141V14.7488H7.87033C6.33375 14.7488 5.09864 15.8671 5.09864 17.455C5.09864 17.7559 5.33482 17.9999 5.62598 17.9999H12.4043C12.6954 17.9999 12.9316 17.7904 12.9316 17.627V17.4544C12.9316 15.8671 11.6662 14.7488 10.1296 14.7488H9.52731V6.11141C10.4986 5.86622 11.2218 4.95981 11.2218 3.88172C11.2218 3.77218 11.2139 3.66462 11.1996 3.55919L13.7018 2.52522L12.0321 6.83849H11.8241C11.533 6.83849 11.2968 7.08241 11.2968 7.38336C11.2968 8.97101 12.5469 10.2627 14.0836 10.2627H15.2133C16.7498 10.2627 18 8.97101 18 7.38336C18 7.08241 17.7639 6.83849 17.4726 6.83849ZM2.78668 13.8418H3.91648C4.68745 13.8418 5.34252 13.3186 5.56622 12.5977C5.56545 12.5976 5.56474 12.5975 5.564 12.5974C5.5633 12.5973 5.56256 12.5972 5.56182 12.5971H1.13681C1.36038 13.3183 2.01544 13.8418 2.78668 13.8418ZM1.87111 11.5074H4.83205L3.35151 7.68319L1.87111 11.5074ZM6.23531 16.9101H11.7949C11.5715 16.189 10.901 15.8385 10.1298 15.8385H7.87033C7.09893 15.8385 6.45887 16.189 6.23531 16.9101ZM7.83281 3.88158C7.83281 4.54663 8.35647 5.08753 8.99997 5.08753C9.64364 5.08753 10.1672 4.54663 10.1672 3.88158C10.1672 3.21666 9.6435 2.67562 8.99997 2.67562C8.35647 2.67562 7.83281 3.21666 7.83281 3.88158ZM16.1288 6.83849L14.6485 3.01432L13.1679 6.83849H16.1288ZM14.0836 9.17294H15.2133C15.9844 9.17294 16.6393 8.64961 16.863 7.92867C16.8616 7.92852 16.8601 7.92838 16.8586 7.92823H12.4336C12.6572 8.64935 13.3124 9.17294 14.0836 9.17294Z" fill="black"/>
</g>
<defs>
<clipPath id="clip0_33_206">
<rect width="18" height="17" fill="white" transform="translate(0 1)"/>
</clipPath>
</defs>
</svg>
