<svg width="18" height="18" viewBox="0 0 18 18" fill="none" xmlns="http://www.w3.org/2000/svg">
<g clip-path="url(#clip0_33_194)">
<path fill-rule="evenodd" clip-rule="evenodd" d="M8.07049 14.9815C8.9027 14.9815 9.57763 15.6581 9.57763 16.492C9.57763 17.3262 8.90262 18.0025 8.07049 18.0025C7.23822 18.0025 6.56331 17.3262 6.56331 16.492C6.56331 15.6581 7.23822 14.9815 8.07049 14.9815ZM7.75119 16.492C7.75119 16.2073 8.09591 16.0649 8.29629 16.2658C8.42095 16.3906 8.42095 16.5935 8.29629 16.7185C8.09599 16.9191 7.75119 16.7767 7.75119 16.492Z" fill="black"/>
<path fill-rule="evenodd" clip-rule="evenodd" d="M15.1038 14.9815C15.9361 14.9815 16.6109 15.6581 16.6109 16.492C16.6109 17.3262 15.9361 18.0025 15.1038 18.0025C14.2716 18.0025 13.5966 17.3262 13.5966 16.492C13.5966 15.6581 14.2716 14.9815 15.1038 14.9815ZM14.7844 16.492C14.7844 16.2073 15.1293 16.0649 15.3297 16.2658C15.4544 16.3906 15.4544 16.5935 15.3297 16.7185C15.1293 16.9191 14.7844 16.7767 14.7844 16.492Z" fill="black"/>
<path fill-rule="evenodd" clip-rule="evenodd" d="M13.4025 11.6733C15.3388 11.4195 16.9357 10.1121 17.5708 8.30286C18.3729 6.41187 17.9105 5.51751 17.3593 5.26474L11.405 4.49364L3.60726 3.35328L2.87907 2.82495C2.98141 2.41311 2.89517 1.98567 2.67344 1.65451C2.22391 0.983516 1.31653 0.803375 0.646452 1.25421C-0.0231496 1.70472 -0.202896 2.61425 0.247025 3.28581C0.66503 3.90993 1.48508 4.11793 2.14816 3.76201L2.89145 4.30132L5.95619 11.8626C5.85401 11.9801 5.76684 12.1136 5.69673 12.2621C5.16472 13.3911 5.99937 14.6715 7.23759 14.6715H16.544C16.872 14.6715 17.1379 14.405 17.1379 14.0762C17.1379 13.7475 16.872 13.481 16.544 13.481H7.23759C7.04777 13.481 6.89565 13.3997 6.79577 13.2403C6.61292 12.948 6.77679 12.5757 7.09611 12.5002L13.4025 11.6733ZM11.7051 5.7494L8.46588 5.26474L9.0529 7.29514L12.0399 7.37836L11.9053 6.60299C11.9053 6.60299 11.7898 6.06098 11.7051 5.7494ZM1.68999 2.31492C1.55844 2.11847 1.23856 2.16732 1.18982 2.41597C1.14043 2.66836 1.41871 2.83251 1.61521 2.70043C1.74009 2.6164 1.77336 2.43952 1.68999 2.31492ZM8.31318 11.1473C8.51337 11.1195 8.71294 11.0917 8.91071 11.0657L8.15665 8.45674L5.82987 8.3919L7.01378 11.3127C7.44234 11.2685 7.8792 11.2077 8.31301 11.1473H8.31303L8.31318 11.1473ZM9.39867 8.49127L10.0981 10.9102L12.596 10.5826L12.2467 8.5706L9.39867 8.49127ZM5.34334 7.19163L7.81064 7.26036L7.17932 5.07655L4.3164 4.65771L5.34334 7.19163ZM13.0271 5.88189L13.2203 7.37836C13.2203 7.37836 15.2746 7.51259 15.9559 7.51259C16.2915 7.09132 16.6698 6.22026 15.8644 6.14688C15.6271 6.12525 15.3364 6.10165 15.0286 6.07664C14.2918 6.01677 13.4575 5.949 13.0271 5.88189ZM13.7672 10.3941L13.4025 8.5706L16.0475 8.62271C15.5255 9.40575 14.7005 10.144 13.7672 10.3941Z" fill="black"/>
</g>
<defs>
<clipPath id="clip0_33_194">
<rect width="18" height="17" fill="white" transform="translate(0 1)"/>
</clipPath>
</defs>
</svg>
